HIERARCHY
ROOT Hips
{
 OFFSET 0.000000 0.000000 0.000000
 CHANNELS 6 Xposition Yposition Zposition Yrotation Xrotation Zrotation
 JOINT Chest
 {
  OFFSET 0.000000 9.585900 0.002600
  CHANNELS 3 Yrotation Xrotation Zrotation
  JOINT Chest2
  {
   OFFSET 0.000000 9.601200 -0.005300
   CHANNELS 3 Yrotation Xrotation Zrotation
   JOINT Chest3
   {
    OFFSET 0.000000 9.561800 0.000000
    CHANNELS 3 Yrotation Xrotation Zrotation
    JOINT Chest4
    {
     OFFSET 0.000000 9.552100 0.000000
     CHANNELS 3 Yrotation Xrotation Zrotation
     JOINT Neck
     {
      OFFSET 0.000000 14.453000 0.000000
      CHANNELS 3 Yrotation Xrotation Zrotation
      JOINT Head
      {
       OFFSET 0.000000 8.936500 -0.011300
       CHANNELS 3 Yrotation Xrotation Zrotation
       End Site
       {
        OFFSET 0.000000 17.073600 -0.006000
       }
      }
     }
     JOINT RightCollar
     {
      OFFSET -2.921100 9.558500 0.000000
      CHANNELS 3 Yrotation Xrotation Zrotation
      JOINT RightShoulder
      {
       OFFSET -13.519700 0.000000 0.000000
       CHANNELS 3 Yrotation Xrotation Zrotation
       JOINT RightElbow
       {
        OFFSET 0.000000 -29.696600 0.000000
        CHANNELS 3 Yrotation Xrotation Zrotation
        JOINT RightWrist
        {
         OFFSET 0.000000 -24.004700 0.000000
         CHANNELS 3 Yrotation Xrotation Zrotation
         End Site
         {
          OFFSET 0.000000 -17.728500 0.000000
         }
        }
       }
      }
     }
     JOINT LeftCollar
     {
      OFFSET 2.921100 9.558500 0.000000
      CHANNELS 3 Yrotation Xrotation Zrotation
      JOINT LeftShoulder
      {
       OFFSET 13.519700 0.000000 0.000000
       CHANNELS 3 Yrotation Xrotation Zrotation
       JOINT LeftElbow
       {
        OFFSET 0.000000 -29.696600 0.000000
        CHANNELS 3 Yrotation Xrotation Zrotation
        JOINT LeftWrist
        {
         OFFSET 0.000000 -24.004700 0.000000
         CHANNELS 3 Yrotation Xrotation Zrotation
         End Site
         {
          OFFSET 0.000000 -17.728500 0.000000
         }
        }
       }
      }
     }
    }
   }
  }
 }
 JOINT RightHip
 {
  OFFSET -7.771700 -0.012900 -0.001300
  CHANNELS 3 Yrotation Xrotation Zrotation
  JOINT RightKnee
  {
   OFFSET 0.000000 -40.869800 0.001200
   CHANNELS 3 Yrotation Xrotation Zrotation
   JOINT RightAnkle
   {
    OFFSET 0.000000 -39.717900 0.002100
    CHANNELS 3 Yrotation Xrotation Zrotation
    JOINT RightToe
    {
     OFFSET 0.000000 -4.965400 11.033500
     CHANNELS 3 Yrotation Xrotation Zrotation
     End Site
     {
      OFFSET 0.000000 -1.423100 5.872300
     }
    }
   }
  }
 }
 JOINT LeftHip
 {
  OFFSET 7.771700 -0.012900 -0.001300
  CHANNELS 3 Yrotation Xrotation Zrotation
  JOINT LeftKnee
  {
   OFFSET 0.000000 -40.869800 0.001200
   CHANNELS 3 Yrotation Xrotation Zrotation
   JOINT LeftAnkle
   {
    OFFSET 0.000000 -39.717900 0.002100
    CHANNELS 3 Yrotation Xrotation Zrotation
    JOINT LeftToe
    {
     OFFSET 0.000000 -4.965400 11.033500
     CHANNELS 3 Yrotation Xrotation Zrotation
     End Site
     {
      OFFSET 0.000000 -1.423100 5.872300
     }
    }
   }
  }
 }
}
MOTION
Frames: 11
Frame Time: 0.008333
0.000000 85.388000 0.000000 0.000000 -5.767877 0.000000 0.000000 11.653817 0.000000 0.000000 -5.885947 0.000000 0.000000 -0.000000 0.000000 0.000000 -0.000000 0.000000 0.000000 12.528835 0.000000 0.000000 0.711642 0.000000 0.000000 -0.000000 0.000000 0.000000 0.000000 -90.000000 0.000000 -2.309062 0.000000 0.000000 2.309062 0.000000 0.000000 -0.000000 0.000000 0.000000 -0.000000 90.000000 0.000000 -2.309062 0.000000 0.000000 2.309062 0.000000 0.000000 8.520406 0.000000 0.000000 1.905762 0.000000 -0.000000 -4.658285 0.000000 0.000000 -0.000000 0.000000 0.000000 8.520406 0.000000 0.000000 1.905762 0.000000 -0.000000 -4.658285 0.000000 0.000000 -0.000000 0.000000
26.768982 49.935388 60.904256 173.642152 -30.925932 -5.922060 11.048801 20.949853 8.570228 1.483569 3.248059 0.839259 2.360164 5.355424 1.458583 8.791226 17.800752 5.970841 -6.876624 15.892867 2.351565 -13.619480 -5.701916 6.802636 5.992894 -5.314698 -6.788217 34.729156 -42.121289 -39.940344 -72.622165 -68.821609 55.610224 -8.662262 -0.656248 -8.263842 -11.902749 -3.860447 1.420573 -9.744396 -6.100973 1.558594 -165.620826 -70.449767 152.912219 9.707442 -0.674585 -11.346456 -0.721931 -49.086508 8.965491 -128.593297 81.697866 -116.127836 -0.328772 -15.245354 -5.532786 -0.097594 0.881149 -0.006129 -7.478707 -53.469638 15.084468 -150.881386 80.409296 -158.781560 0.542330 -17.728714 8.573364 -0.433603 -0.688077 -0.181734
26.768988 49.932557 60.901412 173.654465 -30.884681 -5.939293 11.019046 20.978740 8.595728 1.461248 3.312427 0.867939 2.364274 5.336203 1.448365 8.767456 17.807388 5.972008 -6.857131 15.808353 2.295854 -13.572908 -5.867959 6.703524 5.947539 -5.245254 -6.731792 34.345138 -42.007907 -39.612190 -74.864492 -69.399968 58.347375 -8.769388 -0.948389 -8.209371 -11.881787 -3.849978 1.384960 -9.642655 -6.179442 1.570389 -165.770632 -70.445016 153.117751 9.736402 -0.674015 -11.295521 -0.747208 -49.127530 8.983096 -128.652778 81.702677 -116.185436 -0.332254 -15.246427 -5.535952 -0.104757 0.891211 -0.012518 -7.524333 -53.510480 15.130815 -150.737086 80.390354 -158.664578 0.567890 -17.715760 8.603472 -0.444430 -0.691763 -0.192222
26.769086 49.931520 60.894751 173.663626 -30.862964 -5.953607 11.003289 20.991705 8.613489 1.438089 3.372207 0.897781 2.356046 5.353176 1.457537 8.743127 17.814634 5.974203 -6.838340 15.711800 2.236420 -13.527460 -6.056652 6.599233 5.899455 -5.169796 -6.670053 33.953672 -41.872611 -39.295692 -77.062528 -70.083431 61.035595 -8.845886 -1.284207 -8.075894 -11.864598 -3.846620 1.343790 -9.580215 -6.285408 1.566121 -165.841458 -70.454154 153.220741 9.801763 -0.660421 -11.180656 -0.766917 -49.147796 8.997677 -128.732428 81.708878 -116.261583 -0.336543 -15.244854 -5.541800 -0.096995 0.909019 -0.021567 -7.565092 -53.535211 15.173376 -150.540135 80.362726 -158.494367 0.594893 -17.671848 8.645155 -0.446089 -0.723536 -0.212347
26.768798 49.932352 60.884712 173.671704 -30.860888 -5.962995 10.991944 21.024172 8.632814 1.426582 3.393291 0.909684 2.343644 5.383975 1.475528 8.713481 17.841273 5.992984 -6.820162 15.599387 2.173816 -13.483700 -6.274912 6.491129 5.854540 -5.083966 -6.599088 33.540881 -41.718204 -38.990106 -79.236625 -70.899623 63.701864 -8.881452 -1.648567 -7.873440 -11.850567 -3.846073 1.299998 -9.462435 -6.340599 1.585833 -166.157676 -70.463456 153.572701 9.837455 -0.662671 -11.120303 -0.778438 -49.149373 9.004049 -128.814437 81.704619 -116.343193 -0.329083 -15.235190 -5.536792 -0.107312 0.895327 -0.029724 -7.588810 -53.536311 15.201881 -150.245693 80.325533 -158.230798 0.645317 -17.640015 8.680685 -0.455699 -0.749462 -0.222322
26.767984 49.930302 60.880219 173.679226 -30.820383 -5.972675 10.960575 21.050203 8.655653 1.445307 3.349329 0.885722 2.319905 5.448562 1.514127 8.683463 17.866538 6.012546 -6.798626 15.487500 2.096791 -13.441850 -6.534834 6.405712 5.810499 -4.988796 -6.515273 33.100233 -41.538235 -38.693529 -81.447599 -71.868223 66.411535 -8.872989 -2.016409 -7.627808 -11.837018 -3.847443 1.255615 -9.365539 -6.386785 1.610964 -166.434912 -70.464074 153.892771 9.870158 -0.679823 -11.049890 -0.800855 -49.193782 9.014527 -128.884508 81.702751 -116.415274 -0.320185 -15.216802 -5.532616 -0.119999 0.880722 -0.038893 -7.621154 -53.576597 15.232683 -150.104388 80.307561 -158.107736 0.662973 -17.615733 8.699437 -0.453396 -0.767451 -0.224277
26.766499 49.928265 60.876969 173.686435 -30.774192 -5.979252 10.922214 21.137490 8.700779 1.442219 3.347356 0.886670 2.328295 5.409152 1.491030 8.673586 17.843416 5.989004 -6.789597 15.422957 2.065575 -13.389183 -6.823086 6.333623 5.727263 -4.849189 -6.366750 32.626816 -41.328040 -38.394549 -83.762756 -73.003651 69.232468 -8.821265 -2.384257 -7.361488 -11.848915 -3.801839 1.247797 -9.299690 -6.354868 1.667474 -166.706990 -70.383219 154.220606 9.909099 -0.719289 -10.958399 -0.813403 -49.243495 9.015406 -128.949933 81.704022 -116.477682 -0.314176 -15.204123 -5.530336 -0.134231 0.890917 -0.048872 -7.647102 -53.621185 15.251581 -149.982504 80.295266 -157.998496 0.683457 -17.599372 8.708983 -0.454236 -0.776172 -0.221843
26.764992 49.927411 60.873733 173.696095 -30.733582 -5.987634 10.896755 21.162728 8.723825 1.430580 3.372407 0.900316 2.325299 5.402436 1.488325 8.630631 17.889692 6.029234 -6.756371 15.261682 1.985893 -13.327279 -7.109161 6.251091 5.671015 -4.766092 -6.296565 32.103493 -41.092930 -38.068857 -86.276655 -74.307294 72.267063 -8.718764 -2.777778 -7.099707 -11.813507 -3.845175 1.178163 -9.261004 -6.383289 1.685668 -166.709649 -70.355143 154.282635 9.941873 -0.787112 -10.867327 -0.823535 -49.288237 9.013900 -129.011331 81.704998 -116.531519 -0.314845 -15.182609 -5.527883 -0.139095 0.871303 -0.054681 -7.671550 -53.659099 15.264592 -149.902282 80.287828 -157.923962 0.694516 -17.584119 8.710798 -0.438903 -0.771798 -0.213787
26.763112 49.927182 60.871727 173.710872 -30.690995 -5.998354 10.872008 21.153329 8.732729 1.416145 3.406422 0.920605 2.316618 5.411680 1.495430 8.588069 17.932392 6.069095 -6.714499 15.054921 1.944482 -13.266370 -7.362012 6.129631 5.594434 -4.681831 -6.227479 31.521089 -40.833559 -37.700673 -89.169470 -75.752474 75.702291 -8.553890 -3.195255 -6.886688 -11.760052 -3.925990 1.094379 -9.249622 -6.374057 1.706869 -166.608238 -70.329935 154.239536 9.966221 -0.874450 -10.781217 -0.839455 -49.333159 9.014272 -129.048104 81.704368 -116.563125 -0.310152 -15.161216 -5.529332 -0.140430 0.864952 -0.057256 -7.698215 -53.696460 15.274161 -149.889588 80.291076 -157.913087 0.689468 -17.574087 8.710402 -0.450994 -0.740228 -0.207078
26.760581 49.927862 60.870473 173.736961 -30.649687 -6.013019 10.835788 21.145421 8.739085 1.402445 3.435968 0.940231 2.308052 5.418957 1.502531 8.557859 17.948314 6.088368 -6.682047 14.893262 1.905573 -13.205515 -7.630944 6.032286 5.483263 -4.579522 -6.135035 30.892286 -40.545502 -37.295231 -92.686368 -77.287742 79.768307 -8.332126 -3.622541 -6.740739 -11.718843 -3.973458 1.030591 -9.251051 -6.371071 1.725400 -166.421928 -70.314066 154.112527 9.977593 -0.971810 -10.704742 -0.866988 -49.373984 9.015899 -129.084230 81.707617 -116.596660 -0.315363 -15.138457 -5.526710 -0.139730 0.856353 -0.061290 -7.726294 -53.728394 15.273593 -149.928624 80.306201 -157.950664 0.676998 -17.573408 8.710986 -0.449316 -0.726820 -0.204925
26.755663 49.929104 60.869822 173.759743 -30.610321 -6.014022 10.796271 21.168459 8.746635 1.390624 3.431983 0.942447 2.299209 5.423991 1.509201 8.528354 17.960511 6.107138 -6.649391 14.771073 1.848876 -13.140165 -7.931671 5.959980 5.361199 -4.477407 -6.045836 30.234105 -40.221888 -36.866739 -97.157298 -78.852047 84.761549 -8.078587 -4.060762 -6.636165 -11.685900 -3.988091 0.990337 -9.248591 -6.398203 1.726372 -166.176699 -70.312206 153.927154 9.973273 -1.068463 -10.640771 -0.867485 -49.416195 8.995289 -129.136916 81.708884 -116.645607 -0.324446 -15.123109 -5.523633 -0.142678 0.853656 -0.059678 -7.733314 -53.761924 15.247649 -150.001728 80.325808 -158.018272 0.662484 -17.558994 8.697387 -0.444182 -0.724276 -0.192103
